TITLE "Fuzzy Warbles 3"
PERFORMER "Andy Partridge"
REM GENRE "Rock"
REM DATE "2003"
REM DISCID 1A0D8D13
FILE "Fuzzy Warbles 3.flac" WAVE
  TRACK 01 AUDIO
    TITLE "My Train Is Coming"
    ISRC GBFHR0300038
    INDEX 01 00:00:00
  TRACK 02 AUDIO
    TITLE "Lightheaded"
    ISRC GBFHR0300039
    INDEX 01 02:43:45
  TRACK 03 AUDIO
    TITLE "Goodbye Humanosaurus"
    ISRC GBFHR0300040
    INDEX 01 06:12:50
  TRACK 04 AUDIO
    TITLE "Humble Daisy"
    ISRC GBFHR0300041
    INDEX 01 09:24:32
  TRACK 05 AUDIO
    TITLE "You Like Me?"
    ISRC GBFHR0300042
    INDEX 01 12:40:15
  TRACK 06 AUDIO
    TITLE "Great Fire"
    ISRC GBFHR0300043
    INDEX 01 17:25:67
  TRACK 07 AUDIO
    TITLE "Work"
    ISRC GBFHR0300044
    INDEX 00 21:04:07
    INDEX 01 21:04:32
  TRACK 08 AUDIO
    TITLE "Mopti Fake 1"
    ISRC GBFHR0300045
    INDEX 00 24:05:50
    INDEX 01 24:07:32
  TRACK 09 AUDIO
    TITLE "Collideascope"
    ISRC GBFHR0300046
    INDEX 00 25:05:10
    INDEX 01 25:05:50
  TRACK 10 AUDIO
    TITLE "Mopti Fake 2"
    ISRC GBFHR0300047
    INDEX 01 28:05:50
  TRACK 11 AUDIO
    TITLE "When We Get To England"
    ISRC GBFHR0300048
    INDEX 00 29:07:67
    INDEX 01 29:08:50
  TRACK 12 AUDIO
    TITLE "Train Running Low On Soul Coal"
    ISRC GBFHR0300049
    INDEX 01 31:26:15
  TRACK 13 AUDIO
    TITLE "Holly Up On Poppy"
    ISRC GBFHR0300050
    INDEX 01 35:44:65
  TRACK 14 AUDIO
    TITLE "Strawberry Fields Forever"
    ISRC GBFHR0300051
    INDEX 00 38:46:72
    INDEX 01 38:47:15
  TRACK 15 AUDIO
    TITLE "Autumn Comes Around"
    ISRC GBFHR0300052
    INDEX 01 42:49:12
  TRACK 16 AUDIO
    TITLE "Child's Crusade"
    ISRC GBFHR0300053
    INDEX 01 43:54:60
  TRACK 17 AUDIO
    TITLE "Little Lighthouse"
    ISRC GBFHR0300054
    INDEX 01 46:33:12
  TRACK 18 AUDIO
    TITLE "This Is The End"
    ISRC GBFHR0300055
    INDEX 01 51:48:70
  TRACK 19 AUDIO
    TITLE "Put It On Again"
    ISRC GBFHR0300056
    INDEX 00 56:47:05
    INDEX 01 56:54:37
